<?xml version="1.0" encoding="UTF-8"?>
<!DOCTYPE svg PUBLIC "-//W3C//DTD SVG 1.1//EN" "http://www.w3.org/Graphics/SVG/1.1/DTD/svg11.dtd">
<!-- Creator: CorelDRAW 2021 (64-Bit) -->
<svg xmlns="http://www.w3.org/2000/svg" xml:space="preserve" width="29.2938mm" height="29.2938mm" version="1.1" style="shape-rendering:geometricPrecision; text-rendering:geometricPrecision; image-rendering:optimizeQuality; fill-rule:evenodd; clip-rule:evenodd"
viewBox="0 0 2095.93 2095.93"
 xmlns:xlink="http://www.w3.org/1999/xlink"
 xmlns:xodm="http://www.corel.com/coreldraw/odm/2003">
 <defs>
  <style type="text/css">
   <![CDATA[
    .fil0 {fill:white}
   ]]>
  </style>
 </defs>
 <g id="Capa_x0020_1">
  <metadata id="CorelCorpID_0Corel-Layer"/>
  <path class="fil0" d="M1810.12 0c157.85,0 285.81,127.96 285.81,285.81l0 1524.31c0,157.85 -127.96,285.81 -285.81,285.81l-1524.31 0c-157.84,0 -285.81,-127.96 -285.81,-285.81l0 -1524.31c0,-157.84 127.96,-285.81 285.81,-285.81l1524.31 0zm0 190.54c52.62,0 95.27,42.65 95.27,95.27l0 1524.31c0,52.62 -42.65,95.27 -95.27,95.27l-476.35 0 0 -666.9 197.8 0c41,0 77.41,-26.24 90.38,-65.14l42.21 -126.61c15.43,-46.27 -19.02,-94.05 -67.79,-94.05l-262.6 0 0 -190.53c0,-47.64 47.64,-95.27 95.27,-95.27l190.54 0c52.62,0 95.27,-42.66 95.27,-95.27l0 -65.35c0,-30.77 -19.65,-58.36 -49.41,-66.22 -124.88,-32.96 -236.4,-32.96 -236.4,-32.96 -238.17,0 -381.07,164.53 -381.07,307.43l0 238.17 -190.54 0c-52.62,0 -95.27,42.66 -95.27,95.27l0 95.27c0,52.62 42.65,95.27 95.27,95.27l190.54 0 0 666.9 -762.16 0c-52.62,0 -95.27,-42.65 -95.27,-95.27l0 -1524.31c0,-52.62 42.65,-95.27 95.27,-95.27l1524.31 0z"/>
 </g>
</svg>
