<?xml version="1.0" encoding="UTF-8"?>
<!DOCTYPE svg PUBLIC "-//W3C//DTD SVG 1.1//EN" "http://www.w3.org/Graphics/SVG/1.1/DTD/svg11.dtd">
<!-- Creator: CorelDRAW 2021 (64-Bit) -->
<svg xmlns="http://www.w3.org/2000/svg" xml:space="preserve" width="29.9505mm" height="29.9505mm" version="1.1" style="shape-rendering:geometricPrecision; text-rendering:geometricPrecision; image-rendering:optimizeQuality; fill-rule:evenodd; clip-rule:evenodd"
viewBox="0 0 2091.79 2091.79"
 xmlns:xlink="http://www.w3.org/1999/xlink"
 xmlns:xodm="http://www.corel.com/coreldraw/odm/2003">
 <defs>
  <style type="text/css">
   <![CDATA[
    .fil0 {fill:white;fill-rule:nonzero}
   ]]>
  </style>
 </defs>
 <g id="Capa_x0020_1">
  <metadata id="CorelCorpID_0Corel-Layer"/>
  <path class="fil0" d="M1729.8 487.68c0,0 0,0.07 0,0.07 0,69.33 -56.22,125.48 -125.48,125.48 -69.26,0 -125.48,-56.22 -125.48,-125.48 0,-69.33 56.22,-125.48 125.48,-125.48l0 0c69.26,0.07 125.41,56.15 125.48,125.41l0 0zm-683.88 906.92c-192.57,0 -348.66,-156.09 -348.66,-348.66 0,-192.57 156.09,-348.67 348.66,-348.67 192.57,0 348.67,156.1 348.67,348.67l0 0c0,0 0,0.07 0,0.07 0,192.5 -156.03,348.52 -348.53,348.52 0,0 -0.07,0 -0.07,0l0 0 -0.07 0.07zm0 -885.72c0,0 0,0 0,0 -296.63,0 -537.05,240.49 -537.05,537.05 0,296.56 240.49,537.05 537.05,537.05 296.64,0 537.05,-240.49 537.05,-537.05l0 0c0,0 0,0 0,-0.07 0,-296.57 -240.42,-537.05 -537.05,-537.05 0,0 0,0 -0.07,0l0 0 0.07 0.07zm0 -320.56c279.2,0 312.47,1.4 422.74,6.21 69.96,0.84 136.5,14.09 198.09,37.52l-3.97 -1.32c91.65,35.71 162.79,106.85 197.73,196.13l0.84 2.37c22.04,57.61 35.16,124.22 35.99,193.76l0 0.35c4.95,110.34 6.07,143.47 6.07,422.74 0,279.27 -1.33,312.46 -6.42,422.74 -1.32,70.02 -14.65,136.57 -38.01,198.15l1.33 -4.05c-18,47.15 -44.64,87.33 -78.33,120.39l-0.07 0.07c-32.99,33.76 -73.17,60.4 -118.01,77.35l-2.23 0.77c-57.82,22.04 -124.64,35.15 -194.45,35.99l-0.35 0c-111.04,4.95 -143.76,6.07 -423.51,6.07 -279.9,0 -312.54,-1.33 -423.51,-6.42 -70.31,-1.32 -137.13,-14.65 -198.99,-38.01l4.11 1.32c-47.15,-17.71 -87.32,-44.43 -120.1,-78.25l-0.07 -0.07c-34.11,-32.78 -60.89,-73.03 -77.7,-118.09l-0.7 -2.16c-21.97,-57.75 -35.29,-124.5 -36.62,-194.25l0 -0.55c-3.9,-109.85 -5.3,-143.76 -5.3,-422.19 0,-278.57 1.4,-312.53 5.3,-423.72 1.33,-70.23 14.58,-136.98 37.95,-198.78l-1.33 4.11c17.22,-47.36 44.08,-87.67 78.33,-120.25l0.14 -0.14c32.64,-34.31 72.88,-61.03 118.01,-77.56l2.16 -0.69c57.4,-22.18 123.74,-35.5 193.06,-36.69l0.49 0c111.1,-3.9 143.82,-5.23 423.51,-5.23l3.83 2.37zm0 -188.32c-284.15,0 -319.58,1.33 -431.17,6.28 -91.72,1.96 -178.7,19.67 -259.18,50.43l5.3 -1.74c-72.54,27.69 -134.33,68.77 -185.25,120.52l-0.07 0.07c-51.96,50.91 -92.97,112.78 -119.48,181.83l-1.19 3.49c-29.01,75.19 -46.73,162.24 -48.62,253.04l0 0.84c-5.23,111.6 -6.27,147.03 -6.27,431.18 0,284.15 1.32,319.58 6.27,431.17 1.96,91.72 19.67,178.7 50.43,259.18l-1.75 -5.3c55.52,140.96 164.95,250.4 302.28,304.66l3.63 1.26c75.18,28.95 162.23,46.66 253.04,48.62l0.84 0c111.59,5.23 147.02,6.27 431.17,6.27 284.15,0 319.58,-1.32 431.18,-6.27 91.72,-2.03 178.69,-19.67 259.18,-50.43l-5.3 1.81c140.95,-55.52 250.39,-164.95 304.66,-302.28l1.25 -3.63c29.02,-75.18 46.67,-162.23 48.62,-253.04l0 -0.84c5.23,-111.59 6.28,-147.02 6.28,-431.17 0,-284.15 -1.33,-319.58 -6.28,-431.18 -2.02,-91.72 -19.67,-178.69 -50.43,-259.18l1.82 5.3c-27.76,-72.54 -68.77,-134.33 -120.6,-185.25l-0.07 -0.07c-50.91,-51.96 -112.78,-92.97 -181.83,-119.47l-3.49 -1.19c-75.18,-29.02 -162.24,-46.73 -253.04,-48.62l-0.84 0c-111.59,-5.23 -147.02,-6.28 -431.17,-6.28l0.06 0z"/>
 </g>
</svg>
