<?xml version="1.0" encoding="UTF-8"?>
<!DOCTYPE svg PUBLIC "-//W3C//DTD SVG 1.1//EN" "http://www.w3.org/Graphics/SVG/1.1/DTD/svg11.dtd">
<!-- Creator: CorelDRAW 2021 (64-Bit) -->
<svg xmlns="http://www.w3.org/2000/svg" xml:space="preserve" width="28.628mm" height="27.9622mm" version="1.1" style="shape-rendering:geometricPrecision; text-rendering:geometricPrecision; image-rendering:optimizeQuality; fill-rule:evenodd; clip-rule:evenodd"
viewBox="0 0 612.68 598.44"
 xmlns:xlink="http://www.w3.org/1999/xlink"
 xmlns:xodm="http://www.corel.com/coreldraw/odm/2003">
 <defs>
  <style type="text/css">
   <![CDATA[
    .fil0 {fill:white}
   ]]>
  </style>
 </defs>
 <g id="Capa_x0020_1">
  <metadata id="CorelCorpID_0Corel-Layer"/>
  <path class="fil0" d="M71.24 299.22c0,-133.78 108.45,-242.23 242.22,-242.23 133.77,0 242.22,108.45 242.22,242.23 0,133.77 -108.45,242.22 -242.22,242.22 -47.65,0 -92.01,-13.73 -129.43,-37.44 -6.96,-4.41 -15.5,-5.59 -23.4,-3.23l-82.05 24.49 30.89 -72.29c3.65,-8.54 2.91,-18.33 -1.99,-26.22 -22.97,-37.02 -36.24,-80.68 -36.24,-127.53zm242.22 -299.22c-165.25,0 -299.22,133.96 -299.22,299.22 0,52.38 13.48,101.69 37.18,144.55l-49.13 114.97c-4.34,10.17 -2.42,21.92 4.94,30.17 7.36,8.25 18.82,11.5 29.41,8.34l128.22 -38.26c43.8,25.1 94.56,39.45 148.6,39.45 165.25,0 299.22,-133.97 299.22,-299.22 0,-165.25 -133.96,-299.22 -299.22,-299.22zm65.33 361.41l-37.45 26.38c-17.54,-9.99 -36.93,-23.94 -56.38,-43.39 -20.22,-20.22 -35.21,-41.1 -46.27,-60.25l23.8 -20.2c10.21,-8.67 13.01,-23.28 6.72,-35.11l-30.32 -56.99c-4.08,-7.67 -11.45,-13.07 -20,-14.64 -8.55,-1.57 -17.35,0.84 -23.9,6.56l-8.99 7.85c-21.62,18.87 -34.41,49.88 -23.81,81.28 10.99,32.55 34.44,83.78 82.47,131.82 51.68,51.68 104.18,72.03 134.88,79.94 24.74,6.37 48.14,-2.17 64.64,-15.61l16.86 -13.74c7.21,-5.87 11.1,-14.9 10.42,-24.17 -0.68,-9.28 -5.84,-17.64 -13.83,-22.4l-47.83 -28.5c-9.66,-5.75 -21.8,-5.29 -31,1.18z"/>
 </g>
</svg>
